# xmcd
#
# Track frame offsets:
#	150
#	17763
#	30957
#	47104
#	62223
#	77384
#	98901
#	112676
#	125166
#	143239
#
# Disc length: 2100 seconds
#
# Revision: 0
# Processed by: cddbd v1.5.1PL0 Copyright (c) Steve Scherf et al.
# Submitted via: dBpowerAMP V4.0
#
DISCID=7908320a
DTITLE=Various Artist - Classic Soul Hits [CD 1 - Soul Man)
DYEAR=2005
DGENRE=Soul
TTITLE0=I Heard it Through the Grapevine (Live) - Marvin Gaye
TTITLE1=Soul Man - Sam and Dave
TTITLE2=If You Don't Know Me by Now - Harold Melvin and The Bluenotes
TTITLE3=Bring the Boys Home - Freda Payne
TTITLE4=La-La Means I Love You - Delfonics
TTITLE5=Lites - Have You Seen Her? - The Chi
TTITLE6=Tell It Like It Is - Aaron Neville
TTITLE7=It Tears Me Up - Percy Sledge
TTITLE8=Let's Get it On (Live) - Marvin Gaye
TTITLE9=Warm and Tender Love - Percy Sledge
EXTD=3 disc set of soul hits.  (and if it matters, my name is Brent Elskan - www.elskan.net)
EXTT0=
EXTT1=
EXTT2=
EXTT3=
EXTT4=
EXTT5=
EXTT6=
EXTT7=
EXTT8=
EXTT9=
PLAYORDER=
